<svg width="24" height="24" viewBox="0 0 24 24" fill="none" xmlns="http://www.w3.org/2000/svg">
<g clip-path="url(#clip0_183_804)">
<path d="M3.51665 3.51625C8.20501 -1.1722 15.7943 -1.17295 20.4834 3.51625C25.1719 8.20471 25.1726 15.7939 20.4834 20.483C15.795 25.1715 8.20576 25.1722 3.51665 20.483C-1.17185 15.7946 -1.1725 8.20541 3.51665 3.51625ZM4.01809 18.7728C4.57863 18.2716 5.17823 17.828 5.81025 17.4457C5.39251 16.0027 5.14503 14.4148 5.08653 12.7642H1.5593C1.71878 14.9891 2.57364 17.0762 4.01809 18.7728ZM22.4408 12.7642H18.9135C18.855 14.4148 18.6075 16.0027 18.1898 17.4457C18.8218 17.828 19.4214 18.2716 19.982 18.7728C21.4264 17.0762 22.2812 14.9891 22.4408 12.7642V12.7642ZM19.9819 5.22645C19.4214 5.7277 18.8218 6.17129 18.1898 6.55357C18.6075 7.99657 18.855 9.58447 18.9135 11.2351H22.4408C22.2812 9.01025 21.4264 6.92316 19.9819 5.22645V5.22645ZM12.7645 6.7116C14.0114 6.62242 15.2137 6.31531 16.3282 5.80868C15.68 4.13946 14.485 2.13743 12.7645 1.64129V6.7116ZM12.7645 8.24354V11.2351H17.3838C17.3309 9.83884 17.133 8.49805 16.804 7.27125C15.5374 7.82496 14.1752 8.15562 12.7645 8.24354V8.24354ZM12.7645 12.7642V15.7558C14.1752 15.8437 15.5374 16.1744 16.804 16.7281C17.133 15.5013 17.3309 14.1605 17.3838 12.7642H12.7645ZM12.7645 17.2877V22.358C14.4849 21.8618 15.6799 19.86 16.3282 18.1906C15.2137 17.684 14.0114 17.3769 12.7645 17.2877ZM11.2355 17.2877C9.9886 17.3769 8.78635 17.684 7.67177 18.1906C8.32004 19.8599 9.51499 21.8618 11.2355 22.358V17.2877ZM11.2355 15.7558V12.7642H6.61621C6.66914 14.1605 6.86698 15.5013 7.19601 16.7281C8.46261 16.1744 9.82481 15.8437 11.2355 15.7558ZM11.2355 11.2351V8.24354C9.82481 8.15562 8.46261 7.82496 7.19601 7.27125C6.86698 8.49805 6.66914 9.83884 6.61621 11.2351H11.2355ZM11.2355 6.7116V1.64133C9.51499 2.13747 8.32 4.13951 7.67177 5.80873C8.78635 6.31531 9.9886 6.62242 11.2355 6.7116ZM7.80142 2.40463C6.82276 2.83319 5.90973 3.41429 5.09126 4.1353C5.48084 4.4788 5.89193 4.79026 6.32119 5.0688C6.70239 4.12495 7.18936 3.20769 7.80142 2.40463V2.40463ZM17.6789 5.0688C18.1081 4.79026 18.5192 4.4788 18.9088 4.1353C18.0903 3.41429 17.1773 2.83319 16.1986 2.40463C16.8107 3.20779 17.2977 4.12504 17.6789 5.0688V5.0688ZM17.6788 18.9305C17.2977 19.8743 16.8106 20.7916 16.1986 21.5947C17.1772 21.1661 18.0903 20.585 18.9088 19.864C18.5192 19.5205 18.1081 19.2091 17.6788 18.9305V18.9305ZM6.32119 18.9305C5.89193 19.2091 5.48084 19.5205 5.09126 19.864C5.90973 20.585 6.82276 21.1661 7.80142 21.5946C7.1894 20.7917 6.70239 19.8744 6.32119 18.9305ZM5.08648 11.2351C5.14498 9.58452 5.39246 7.99657 5.8102 6.55362C5.17819 6.17134 4.57863 5.72775 4.01804 5.2265C2.57359 6.92316 1.71877 9.01025 1.55925 11.2351H5.08648Z" fill="white"/>
</g>
<defs>
<clipPath id="clip0_183_804">
<rect width="24" height="24" fill="white" transform="matrix(-1 0 0 1 24 0)"/>
</clipPath>
</defs>
</svg>
