<?xml version="1.0" standalone="no"?>
<!DOCTYPE svg PUBLIC "-//W3C//DTD SVG 20010904//EN"
 "http://www.w3.org/TR/2001/REC-SVG-20010904/DTD/svg10.dtd">
<svg version="1.0" xmlns="http://www.w3.org/2000/svg"
 width="700.000000pt" height="700.000000pt" viewBox="0 0 700.000000 700.000000"
 preserveAspectRatio="xMidYMid meet">
<metadata>
Created by potrace 1.11, written by Peter Selinger 2001-2013
</metadata>
<g transform="translate(0.000000,700.000000) scale(0.100000,-0.100000)"
fill="#000000" stroke="none">
<path d="M3427 6994 c-1 -1 -58 -5 -127 -8 -137 -6 -322 -28 -443 -52 -42 -8
-90 -18 -105 -20 -15 -3 -88 -21 -162 -40 -323 -85 -648 -227 -947 -413 -109
-67 -322 -219 -359 -255 -6 -6 -38 -33 -70 -60 -98 -82 -324 -314 -415 -426
-208 -256 -388 -549 -497 -810 -13 -30 -32 -73 -42 -95 -45 -97 -155 -457
-175 -575 -3 -19 -10 -51 -15 -70 -9 -36 -17 -86 -26 -155 -2 -22 -9 -74 -14
-115 -20 -158 -29 -510 -16 -630 2 -19 7 -71 10 -115 4 -44 8 -89 10 -100 2
-11 7 -45 11 -75 4 -30 11 -71 15 -90 5 -19 11 -51 14 -70 5 -32 42 -187 67
-283 18 -73 97 -291 147 -412 22 -53 144 -296 183 -365 32 -56 191 -300 215
-329 7 -9 41 -52 76 -96 210 -268 505 -540 793 -732 213 -142 448 -265 681
-356 188 -74 545 -172 694 -191 25 -3 56 -8 70 -11 14 -3 48 -7 75 -10 28 -3
71 -7 97 -11 117 -14 439 -19 568 -10 73 6 183 17 215 22 17 2 44 6 60 9 17 2
55 8 85 14 30 6 66 12 80 15 88 16 143 29 228 52 102 28 337 106 387 128 17 8
59 26 94 41 299 125 604 316 885 556 144 122 324 305 422 428 10 13 31 38 45
55 172 206 394 590 501 866 46 119 98 263 103 287 2 10 16 61 30 113 31 113
53 212 70 325 2 11 8 49 14 85 6 36 13 98 17 138 3 40 7 92 9 115 6 64 6 437
1 482 -3 22 -8 67 -11 100 -6 67 -11 110 -20 170 -4 22 -9 54 -11 70 -11 75
-48 240 -75 340 -240 872 -810 1619 -1590 2082 -73 43 -135 78 -138 78 -3 0
-13 5 -21 10 -18 12 -189 95 -195 95 -3 0 -33 13 -67 29 -244 111 -637 215
-929 246 -30 3 -63 8 -74 10 -41 8 -421 25 -428 19z m1739 -1375 c4 -22 18
-92 29 -149 3 -14 7 -36 9 -50 3 -14 8 -43 11 -65 3 -22 7 -47 10 -55 2 -8 6
-40 9 -70 3 -30 8 -64 10 -75 2 -11 7 -51 11 -90 4 -38 9 -78 11 -89 26 -135
26 -854 0 -992 -2 -10 -7 -44 -10 -75 -4 -31 -8 -66 -11 -77 -2 -11 -6 -35 -9
-53 -3 -19 -8 -43 -10 -54 -2 -11 -11 -56 -20 -99 -18 -87 -71 -280 -91 -336
-145 -395 -303 -669 -540 -933 -244 -272 -533 -492 -872 -661 -158 -79 -400
-182 -408 -174 -2 3 -9 63 -20 181 -3 26 -7 71 -10 100 -24 240 -25 873 -1
1004 2 10 7 50 10 88 4 39 9 81 11 95 2 14 7 45 10 70 3 25 8 52 10 60 2 8 6
32 9 53 11 69 37 190 67 306 153 589 429 1080 834 1486 218 219 369 339 670
531 49 31 69 43 90 53 11 5 56 30 100 55 43 25 81 44 82 42 2 -2 6 -14 9 -27z
m-3168 -1468 c490 -379 788 -864 887 -1443 35 -209 46 -441 31 -688 -7 -117
-10 -150 -21 -225 -2 -16 -7 -52 -11 -80 -5 -44 -41 -240 -60 -332 l-6 -32
-57 31 c-114 63 -279 178 -388 272 -394 337 -620 787 -660 1316 -11 150 -5
416 12 523 2 12 6 43 10 70 22 180 142 657 165 657 4 0 48 -31 98 -69z"/>
</g>
</svg>
