<svg width="24" height="21" viewBox="0 0 24 21" fill="none" xmlns="http://www.w3.org/2000/svg">
<path d="M15.6291 15.9928H0V16.9485H16.2161L15.6291 15.9928Z" fill="#F8AA2B"/>
<path d="M19.5186 15.973L20.1115 16.9484H23.9998L23.9707 15.973H19.5186Z" fill="#F8AA2B"/>
<path d="M3.42529 17.904V18.944H17.4316L16.8217 17.9343L3.42529 17.904Z" fill="#F8AA2B"/>
<path d="M5.40666 15.0142L13.4485 1.91169L12.4983 1.35292L4.76674 14.0415L2.07275 14.0402V15.0142H5.40666Z" fill="#F8AA2B"/>
<path d="M7.96952 15.0143L16.9097 0.558007L15.9592 0L6.67676 15.0143H7.96952Z" fill="#F8AA2B"/>
<path d="M12.7832 9.2253L20.0187 21H21.3467L13.4284 8.16953L12.7832 9.2253Z" fill="#F8AA2B"/>
<path d="M12.8111 11.3819L12.1395 10.2789L9.24268 15.0143H10.5914L12.8111 11.3819Z" fill="#F8AA2B"/>
<path d="M16.5708 5.22969L15.5763 4.65509L14.0757 7.11052L18.921 15.0143H22.4335V14.0584H19.588L15.3954 7.15319L16.5708 5.22969Z" fill="#F8AA2B"/>
</svg>
