<svg width="192" height="70" viewBox="0 0 192 70" fill="none" xmlns="http://www.w3.org/2000/svg">
<path d="M50.0768 54.634H0V58.2017H52.2259L50.0768 54.634Z" fill="#F5AA29"/>
<path d="M62.5918 54.634L64.7419 58.2017H77.999V54.634H62.5918Z" fill="#F5AA29"/>
<path d="M15.7432 61.7697V65.3371H56.5172V65.3227L54.3759 61.7697H15.7432Z" fill="#F5AA29"/>
<path d="M17.1304 51.0751L42.9374 8.24495L39.8704 6.40753L15.1056 47.5073H7.87109V51.0751H17.1304Z" fill="#F5AA29"/>
<path d="M25.4774 51.0751L55.1473 1.83742L52.0803 0L21.3047 51.0751H25.4774Z" fill="#F5AA29"/>
<path d="M40.8799 32.4189L63.5249 70L66.5919 68.1624L42.9674 28.956L40.8799 32.4189Z" fill="#F5AA29"/>
<path d="M40.8849 39.3618L38.7974 35.8975L29.6514 51.0751H33.8264L40.8849 39.3618Z" fill="#F5AA29"/>
<path d="M53.1801 18.9584L50.112 17.1197L45.0605 25.503L60.4691 51.0751H71.5581V47.5073H62.4939L49.2356 25.503L53.1801 18.9584Z" fill="#F5AA29"/>
<path d="M103.412 43.9623H91.6181V47.1775H88.9785V41.5233H90.5285C90.8512 41.1852 91.1258 40.7827 91.3519 40.3159C91.5778 39.8489 91.7595 39.3337 91.8967 38.7704C92.0339 38.207 92.1308 37.6192 92.1873 37.0076C92.2437 36.3957 92.2719 35.776 92.2719 35.148V27.9277H103.848V41.5233H106.052V47.1775H103.412V43.9623ZM94.8873 36.7299C94.855 37.2849 94.7944 37.8406 94.7055 38.3957C94.6169 38.9513 94.4958 39.4987 94.3424 40.0381C94.1891 40.5774 93.9832 41.0725 93.7249 41.5233H101.184V30.3668H94.9356V35.1239C94.9358 35.639 94.9197 36.1745 94.8873 36.7299Z" fill="#2B1B14"/>
<path d="M115.521 41.6077C115.989 41.4064 116.361 41.0966 116.635 40.6782H119.42C119 41.7889 118.298 42.6663 117.313 43.3102C116.328 43.9542 115.215 44.2761 113.971 44.2761C113.099 44.2761 112.296 44.1274 111.562 43.8293C110.827 43.5317 110.193 43.1171 109.661 42.5858C109.128 42.0544 108.708 41.4266 108.401 40.7022C108.095 39.9778 107.941 39.1809 107.941 38.3116C107.941 37.4742 108.087 36.6935 108.377 35.9691C108.668 35.2447 109.076 34.6167 109.6 34.0855C110.125 33.5543 110.746 33.1358 111.465 32.8298C112.183 32.5239 112.978 32.371 113.85 32.371C114.69 32.371 115.461 32.5199 116.163 32.8179C116.865 33.1156 117.471 33.5302 117.979 34.0614C118.488 34.5926 118.883 35.2123 119.166 35.9208C119.448 36.6292 119.59 37.3938 119.59 38.215V38.7218C119.59 38.8831 119.573 39.0519 119.541 39.2289H110.605C110.75 40.0339 111.134 40.6818 111.756 41.173C112.377 41.6638 113.116 41.9093 113.971 41.9093C114.536 41.9095 115.053 41.8087 115.521 41.6077ZM111.719 35.3534C111.122 35.8119 110.767 36.4197 110.654 37.1766H116.877C116.748 36.4199 116.417 35.8121 115.885 35.3534C115.352 34.8945 114.674 34.6652 113.85 34.6652C113.027 34.6652 112.317 34.8945 111.719 35.3534Z" fill="#2B1B14"/>
<path d="M125.063 36.9351V43.9622H122.496V32.6851H125.257L129.567 39.4948L133.902 32.6851H136.615V43.9622H134.048V36.9108L129.543 43.9622L125.063 36.9351Z" fill="#2B1B14"/>
<path d="M147.125 41.6077C147.593 41.4064 147.964 41.0966 148.239 40.6782H151.023C150.604 41.7889 149.902 42.6663 148.917 43.3102C147.932 43.9542 146.818 44.2761 145.575 44.2761C144.703 44.2761 143.9 44.1274 143.165 43.8293C142.431 43.5317 141.797 43.1171 141.264 42.5858C140.731 42.0544 140.312 41.4266 140.005 40.7022C139.698 39.9778 139.545 39.1809 139.545 38.3116C139.545 37.4742 139.69 36.6935 139.981 35.9691C140.271 35.2447 140.679 34.6167 141.204 34.0855C141.728 33.5543 142.35 33.1358 143.068 32.8298C143.787 32.5239 144.582 32.371 145.454 32.371C146.293 32.371 147.064 32.5199 147.766 32.8179C148.469 33.1156 149.074 33.5302 149.583 34.0614C150.091 34.5926 150.487 35.2123 150.769 35.9208C151.052 36.6292 151.193 37.3938 151.193 38.215V38.7218C151.193 38.8831 151.177 39.0519 151.145 39.2289H142.209C142.354 40.0339 142.737 40.6818 143.359 41.173C143.98 41.6638 144.719 41.9093 145.575 41.9093C146.14 41.9095 146.657 41.8087 147.125 41.6077ZM143.323 35.3534C142.725 35.8119 142.37 36.4197 142.257 37.1766H148.481C148.352 36.4199 148.021 35.8121 147.488 35.3534C146.955 34.8945 146.277 34.6652 145.454 34.6652C144.63 34.6652 143.92 34.8945 143.323 35.3534Z" fill="#2B1B14"/>
<path d="M163.642 32.6851V34.9308H159.331V43.9622H156.764V34.9308H152.478V32.6851H163.642Z" fill="#2B1B14"/>
<path d="M165.942 32.685H168.509V33.7232C168.913 33.3047 169.425 32.9747 170.047 32.7331C170.669 32.4916 171.343 32.3708 172.069 32.3708C172.989 32.3708 173.809 32.5359 174.527 32.8658C175.246 33.196 175.847 33.6347 176.331 34.1821C176.816 34.7294 177.187 35.3611 177.445 36.0778C177.704 36.7943 177.833 37.5387 177.833 38.3114C177.833 39.0841 177.704 39.8328 177.445 40.5573C177.187 41.2817 176.816 41.9176 176.331 42.4648C175.847 43.0122 175.246 43.4511 174.527 43.781C173.809 44.111 172.989 44.2759 172.069 44.2759C171.343 44.2759 170.669 44.1553 170.047 43.914C169.425 43.6725 168.913 43.3424 168.509 42.9237V48.5539H165.942V32.685ZM168.703 39.8931C168.897 40.3359 169.159 40.71 169.49 41.016C169.821 41.322 170.196 41.5474 170.616 41.6923C171.036 41.837 171.463 41.9093 171.899 41.9093C172.4 41.9093 172.856 41.8129 173.268 41.6198C173.679 41.4266 174.034 41.1689 174.333 40.8471C174.632 40.525 174.862 40.1427 175.023 39.7C175.185 39.257 175.266 38.7941 175.266 38.3112C175.266 37.8283 175.185 37.3696 175.023 36.9349C174.862 36.5003 174.632 36.1219 174.333 35.8C174.034 35.4781 173.68 35.2205 173.268 35.0271C172.856 34.8341 172.4 34.7375 171.899 34.7375C171.463 34.7375 171.036 34.8098 170.616 34.9547C170.196 35.0996 169.821 35.3208 169.49 35.6189C169.159 35.9167 168.897 36.291 168.703 36.7418C168.509 37.1924 168.412 37.7159 168.412 38.3112C168.412 38.9232 168.509 39.4504 168.703 39.8931Z" fill="#2B1B14"/>
<path d="M192 43.9622H189.433V42.924C189.029 43.3425 188.517 43.6725 187.895 43.9141C187.273 44.1554 186.599 44.276 185.873 44.276C184.953 44.276 184.133 44.1111 183.415 43.7811C182.697 43.4514 182.095 43.0125 181.611 42.4651C181.127 41.9178 180.755 41.2857 180.497 40.5696C180.238 39.8531 180.109 39.1085 180.109 38.3358C180.109 37.5628 180.238 36.8145 180.497 36.0901C180.755 35.3655 181.127 34.7296 181.611 34.1824C182.095 33.635 182.697 33.1963 183.415 32.8662C184.133 32.5364 184.953 32.3713 185.873 32.3713C186.6 32.3713 187.273 32.4919 187.895 32.7334C188.517 32.9749 189.029 33.305 189.433 33.7235V32.6853H192V43.9622ZM189.239 36.7661C189.045 36.3151 188.783 35.9369 188.452 35.6312C188.121 35.3252 187.746 35.0999 187.326 34.9549C186.906 34.81 186.478 34.7376 186.043 34.7376C185.542 34.7376 185.086 34.8342 184.674 35.0272C184.263 35.2206 183.907 35.4782 183.609 35.8001C183.31 36.1219 183.08 36.5045 182.919 36.9472C182.757 37.3899 182.676 37.8528 182.676 38.3358C182.676 38.8187 182.757 39.2776 182.919 39.7122C183.08 40.1469 183.31 40.5253 183.609 40.8472C183.907 41.1689 184.263 41.4267 184.674 41.6199C185.086 41.8131 185.542 41.9096 186.043 41.9096C186.478 41.9096 186.906 41.8371 187.326 41.6924C187.746 41.5474 188.121 41.3261 188.452 41.0283C188.783 40.7304 189.045 40.3562 189.239 39.9054C189.433 39.4546 189.53 38.9313 189.53 38.3358C189.53 37.7403 189.433 37.217 189.239 36.7661Z" fill="#2B1B14"/>
<path d="M94.9873 52.3449H92.6742V58.1861H91.2712V52.3449H88.9473V51.0952H94.9873V52.3449Z" fill="#2B1B14"/>
<path d="M102.424 54.1176C102.328 54.381 102.178 54.6122 101.974 54.8114C101.771 55.0107 101.514 55.1692 101.203 55.2867C100.893 55.4041 100.527 55.463 100.106 55.463H97.9958V58.1861H96.5928V51.0952H100.106C100.527 51.0952 100.893 51.1539 101.203 51.2714C101.514 51.389 101.771 51.5473 101.974 51.7467C102.178 51.946 102.328 52.1773 102.424 52.4408C102.52 52.7042 102.568 52.9819 102.568 53.2736C102.568 53.5728 102.52 53.8542 102.424 54.1176ZM100.009 54.2137C100.373 54.2137 100.657 54.128 100.86 53.9571C101.064 53.7864 101.165 53.5588 101.165 53.2737C101.165 52.989 101.064 52.7629 100.86 52.5957C100.657 52.4284 100.373 52.3447 100.009 52.3447H97.9956V54.2135H100.009V54.2137Z" fill="#2B1B14"/>
<path d="M105.716 54.0106H109.229V55.2601H105.716V56.9366H109.304V58.1861H104.313V51.0953H109.304V52.3448H105.716V54.0106Z" fill="#2B1B14"/>
<path d="M116.233 53.1992L112.699 58.1862H111.296V51.0954H112.699V56.0824L116.233 51.0954H117.636V58.1862H116.233V53.1992ZM113.711 49.296C113.915 49.4491 114.166 49.5257 114.466 49.5257C114.766 49.5257 115.018 49.4491 115.221 49.296C115.425 49.1429 115.544 48.9311 115.58 48.6605H116.693C116.672 48.9597 116.601 49.23 116.479 49.4719C116.358 49.7141 116.197 49.9204 115.997 50.0914C115.798 50.2623 115.567 50.3958 115.307 50.4918C115.046 50.588 114.766 50.6362 114.466 50.6362C114.166 50.6362 113.886 50.588 113.626 50.4918C113.365 50.3958 113.135 50.2623 112.935 50.0914C112.735 49.9204 112.574 49.7141 112.453 49.4719C112.332 49.23 112.26 48.9596 112.239 48.6605H113.352C113.388 48.9311 113.508 49.1429 113.711 49.296Z" fill="#2B1B14"/>
<path d="M125.785 56.9367H126.76V59.756H125.389V58.1862H120.517V59.756H119.146V56.9367H119.831C119.96 56.7943 120.069 56.6232 120.158 56.4239C120.247 56.2247 120.319 56.0092 120.372 55.7781C120.425 55.5468 120.465 55.3028 120.49 55.0464C120.515 54.79 120.527 54.5337 120.527 54.2778V51.0953H125.785V56.9367ZM121.845 55.6125C121.787 56.0896 121.662 56.5309 121.47 56.9367H124.383V52.3448H121.93V54.267C121.93 54.6867 121.902 55.1355 121.845 55.6125Z" fill="#2B1B14"/>
<path d="M133.399 53.199L129.865 58.1861H128.462V51.0953H129.865V56.0825L133.399 51.0953H134.802V58.1861H133.399V53.199Z" fill="#2B1B14"/>
<path d="M141.838 55.2602H138.389V58.1861H136.986V51.0952H138.389V54.0106H141.838V51.0952H143.241V58.1861H141.838V55.2602Z" fill="#2B1B14"/>
<path d="M146.828 52.3449V58.1861H145.425V51.0952H150.276V52.3449H146.828Z" fill="#2B1B14"/>
</svg>
