<svg width="186" height="70" viewBox="0 0 186 70" fill="none" xmlns="http://www.w3.org/2000/svg">
<path d="M50.077 54.634H0V58.201H52.226L50.077 54.634Z" fill="#F5AA29"/>
<path d="M62.5918 54.634L64.7418 58.201H77.9988V54.634H62.5918Z" fill="#F5AA29"/>
<path d="M15.7432 61.77V65.337H56.5172V65.322L54.3762 61.769H15.7432V61.77Z" fill="#F5AA29"/>
<path d="M17.1301 51.075L42.9371 8.24496L39.8701 6.40796L15.1051 47.508H7.87109V51.075H17.1301V51.075Z" fill="#F5AA29"/>
<path d="M25.4777 51.075L55.1477 1.837L52.0797 0L21.3047 51.075H25.4777Z" fill="#F5AA29"/>
<path d="M40.8799 32.4191L63.5249 70.0001L66.5919 68.1621L42.9669 28.9561L40.8799 32.4191Z" fill="#F5AA29"/>
<path d="M40.8853 39.361L38.7983 35.897L29.6523 51.075H33.8273L40.8853 39.361Z" fill="#F5AA29"/>
<path d="M53.1795 18.9579L50.1115 17.1189L45.0605 25.5019L60.4695 51.0739H71.5585V47.5069H62.4945L49.2355 25.5029L53.1795 18.9579Z" fill="#F5AA29"/>
<path d="M98.2444 28.566C99.3324 28.993 100.254 29.568 101.008 30.293C101.758 31.019 102.326 31.867 102.713 32.841C103.102 33.816 103.295 34.851 103.295 35.944C103.295 37.04 103.102 38.073 102.713 39.048C102.326 40.022 101.758 40.87 101.008 41.596C100.254 42.321 99.3324 42.895 98.2444 43.323C97.1524 43.75 95.9064 43.963 94.5004 43.963H89.0244V27.927H94.5004C95.9064 27.927 97.1524 28.14 98.2444 28.566ZM100.205 33.686C99.9244 33.001 99.5194 32.415 98.9984 31.924C98.4694 31.432 97.8284 31.049 97.0684 30.777C96.3084 30.504 95.4614 30.366 94.5234 30.366H91.6904V41.523H94.5234C95.4614 41.523 96.3084 41.385 97.0684 41.112C97.8284 40.838 98.4684 40.456 98.9984 39.966C99.5194 39.474 99.9244 38.885 100.205 38.2C100.488 37.517 100.631 36.765 100.631 35.943C100.631 35.124 100.488 34.372 100.205 33.686Z" fill="white"/>
<path d="M113.06 41.6061C113.529 41.4061 113.902 41.0941 114.173 40.6751H116.962C116.542 41.7871 115.839 42.6651 114.853 43.3091C113.869 43.9551 112.753 44.2751 111.511 44.2751C110.64 44.2751 109.833 44.1261 109.099 43.8291C108.365 43.5291 107.73 43.1161 107.197 42.5851C106.664 42.0541 106.244 41.4241 105.937 40.6991C105.628 39.9771 105.478 39.1801 105.478 38.3101C105.478 37.4731 105.623 36.6921 105.912 35.9681C106.203 35.2431 106.611 34.6141 107.137 34.0841C107.662 33.5531 108.285 33.1361 109.002 32.8281C109.721 32.5221 110.518 32.3701 111.391 32.3701C112.229 32.3701 113.002 32.5171 113.704 32.8161C114.407 33.1121 115.013 33.5291 115.52 34.0581C116.032 34.5901 116.426 35.2091 116.709 35.9191C116.99 36.6281 117.131 37.3921 117.131 38.2121V38.7181C117.131 38.8791 117.115 39.0511 117.084 39.2261H108.141C108.289 40.0311 108.672 40.6801 109.293 41.1701C109.914 41.6601 110.654 41.9061 111.512 41.9061C112.077 41.9081 112.591 41.8081 113.06 41.6061ZM109.255 35.3541C108.659 35.8111 108.304 36.4191 108.191 37.1751H114.418C114.287 36.4191 113.959 35.8111 113.424 35.3541C112.891 34.8941 112.213 34.6641 111.391 34.6641C110.564 34.6631 109.853 34.8941 109.255 35.3541Z" fill="white"/>
<path d="M136.137 35.4981C135.696 34.9901 135.012 34.7361 134.09 34.7361C133.688 34.7361 133.301 34.8171 132.926 34.9781C132.555 35.1391 132.229 35.3641 131.947 35.6531C131.664 35.9441 131.435 36.3021 131.267 36.7291C131.097 37.1571 131.013 37.6351 131.013 38.1651V43.9631H128.443V37.5611C128.443 36.6931 128.222 36.0061 127.779 35.4981C127.334 34.9901 126.65 34.7361 125.73 34.7361C125.326 34.7361 124.939 34.8171 124.568 34.9781C124.195 35.1391 123.873 35.3641 123.597 35.6531C123.322 35.9441 123.099 36.2971 122.929 36.7161C122.761 37.1361 122.677 37.6021 122.677 38.1171V43.9631H120.107V32.6851H122.677V33.7231C123.001 33.3521 123.458 33.0351 124.058 32.7701C124.656 32.5051 125.341 32.3721 126.119 32.3721C128.023 32.3721 129.396 33.0071 130.236 34.2791C130.674 33.7321 131.242 33.2761 131.945 32.9151C132.648 32.5511 133.482 32.3721 134.455 32.3721C135.195 32.3721 135.871 32.4881 136.476 32.7211C137.083 32.9541 137.597 33.2821 138.027 33.7001C138.455 34.1181 138.787 34.6291 139.019 35.2331C139.255 35.8371 139.371 36.5011 139.371 37.2241V43.9631H136.803V37.5631C136.803 36.6921 136.582 36.0061 136.137 35.4981Z" fill="white"/>
<path d="M149.718 41.6061C150.187 41.4061 150.558 41.0941 150.833 40.6751H153.62C153.2 41.7871 152.497 42.6651 151.509 43.3091C150.525 43.9551 149.411 44.2751 148.169 44.2751C147.296 44.2751 146.491 44.1261 145.757 43.8291C145.021 43.5291 144.388 43.1161 143.857 42.5851C143.32 42.0541 142.9 41.4241 142.597 40.6991C142.284 39.9771 142.136 39.1801 142.136 38.3101C142.136 37.4731 142.279 36.6921 142.572 35.9681C142.863 35.2431 143.267 34.6141 143.795 34.0841C144.32 33.5531 144.943 33.1361 145.662 32.8281C146.379 32.5221 147.176 32.3701 148.049 32.3701C148.889 32.3701 149.658 32.5171 150.362 32.8161C151.065 33.1121 151.671 33.5291 152.178 34.0581C152.688 34.5901 153.082 35.2091 153.366 35.9191C153.649 36.6281 153.792 37.3921 153.792 38.2121V38.7181C153.792 38.8791 153.772 39.0511 153.743 39.2261H144.802C144.947 40.0311 145.331 40.6801 145.952 41.1701C146.573 41.6601 147.313 41.9061 148.171 41.9061C148.733 41.9081 149.247 41.8081 149.718 41.6061ZM145.913 35.3541C145.315 35.8111 144.962 36.4191 144.849 37.1751H151.074C150.945 36.4191 150.615 35.8111 150.08 35.3541C149.549 34.8941 148.873 34.6641 148.049 34.6641C147.222 34.6631 146.511 34.8941 145.913 35.3541Z" fill="white"/>
<path d="M159.032 32.6849H162.571V34.9289H159.032V40.0249C159.032 41.1529 159.606 41.7149 160.755 41.7149H162.571V43.9609H160.727C159.307 43.9609 158.243 43.6419 157.532 43.0079C156.821 42.3699 156.464 41.5229 156.464 40.4599V29.8579H159.032V32.6849V32.6849Z" fill="white"/>
<path d="M168.023 34.0599C168.296 33.6419 168.732 33.2919 169.328 33.0109C169.93 32.7289 170.644 32.5869 171.484 32.5869H172.527V35.0259H171.484C170.371 35.0259 169.513 35.3439 168.918 35.9799C168.318 36.6159 168.023 37.4579 168.023 38.5039V43.9599H165.451V32.6849H168.023V34.0599Z" fill="white"/>
<path d="M186.001 43.9631H183.431V42.9241C183.029 43.3411 182.515 43.6741 181.894 43.9131C181.273 44.1531 180.597 44.2751 179.871 44.2751C178.951 44.2751 178.133 44.1101 177.41 43.7791C176.693 43.4511 176.09 43.0091 175.607 42.4631C175.121 41.9181 174.75 41.2861 174.49 40.5691C174.232 39.8531 174.103 39.1071 174.103 38.3361C174.103 37.5611 174.232 36.8131 174.49 36.0881C174.75 35.3641 175.121 34.7291 175.607 34.1811C176.089 33.6331 176.693 33.1961 177.41 32.8651C178.133 32.5371 178.951 32.3721 179.871 32.3721C180.598 32.3721 181.273 32.4911 181.894 32.7331C182.515 32.9751 183.029 33.3041 183.431 33.7231V32.6851H186.001V43.9631ZM183.239 36.7661C183.044 36.3151 182.782 35.9371 182.45 35.6301C182.12 35.3251 181.745 35.0991 181.323 34.9541C180.905 34.8091 180.477 34.7361 180.04 34.7361C179.54 34.7361 179.083 34.8341 178.673 35.0261C178.259 35.2181 177.903 35.4761 177.603 35.7981C177.308 36.1191 177.076 36.5031 176.917 36.9451C176.755 37.3881 176.671 37.8501 176.671 38.3351C176.671 38.8171 176.755 39.2731 176.917 39.7091C177.075 40.1441 177.308 40.5231 177.603 40.8451C177.904 41.1671 178.259 41.4231 178.673 41.6181C179.083 41.8121 179.54 41.9071 180.04 41.9071C180.478 41.9071 180.905 41.8361 181.323 41.6901C181.745 41.5441 182.12 41.3241 182.45 41.0271C182.782 40.7301 183.044 40.3541 183.239 39.9031C183.43 39.4531 183.528 38.9291 183.528 38.3351C183.528 37.7391 183.431 37.2161 183.239 36.7661Z" fill="white"/>
<path d="M95.2404 52.321H92.9084V58.204H91.4934V52.321H89.1514V51.061H95.2394V52.321H95.2404Z" fill="white"/>
<path d="M102.734 54.106C102.636 54.372 102.486 54.604 102.281 54.804C102.076 55.005 101.816 55.164 101.502 55.283C101.191 55.403 100.824 55.462 100.397 55.462H100.247L103.259 58.204H101.284L98.2724 55.462V58.204H96.8584V51.061H100.397C100.825 51.061 101.192 51.121 101.502 51.238C101.816 51.356 102.076 51.518 102.281 51.717C102.486 51.92 102.636 52.153 102.734 52.418C102.832 52.682 102.88 52.963 102.88 53.256C102.881 53.557 102.832 53.841 102.734 54.106ZM100.301 54.203C100.668 54.203 100.953 54.116 101.156 53.945C101.365 53.773 101.467 53.543 101.467 53.256C101.467 52.969 101.365 52.742 101.156 52.573C100.953 52.404 100.668 52.321 100.301 52.321H98.2724V54.203H100.301V54.203Z" fill="white"/>
<path d="M110.167 58.204L109.464 56.623H106.193L105.494 58.204H104.049L107.166 51.061H108.549L111.668 58.204H110.167ZM108.903 55.364L107.835 52.933L106.757 55.364H108.903Z" fill="white"/>
<path d="M117.18 51.347C117.662 51.536 118.069 51.794 118.405 52.117C118.739 52.44 118.995 52.818 119.165 53.251C119.339 53.686 119.427 54.147 119.427 54.633C119.427 55.123 119.339 55.581 119.165 56.017C118.995 56.45 118.739 56.83 118.405 57.152C118.069 57.475 117.663 57.731 117.18 57.92C116.698 58.111 116.145 58.206 115.518 58.206H113.036V51.063H115.518C116.145 51.062 116.697 51.156 117.18 51.347ZM116.529 56.773C116.84 56.659 117.107 56.499 117.326 56.294C117.545 56.089 117.713 55.845 117.834 55.564C117.953 55.279 118.012 54.97 118.012 54.631C118.012 54.294 117.953 53.985 117.834 53.702C117.713 53.418 117.545 53.175 117.326 52.97C117.107 52.767 116.84 52.606 116.529 52.491C116.215 52.377 115.863 52.318 115.472 52.318H114.449V56.943H115.472C115.863 56.944 116.215 56.887 116.529 56.773Z" fill="white"/>
<path d="M122.652 51.062H121.238V58.205H122.652V51.062Z" fill="white"/>
<path d="M131.364 58.204H129.829L126.268 53.191V58.204H124.852V51.061H126.385L129.948 56.074V51.061H131.364V58.204Z" fill="white"/>
<path d="M135.409 58.0641C134.958 57.8761 134.565 57.6211 134.233 57.2911C133.903 56.9601 133.641 56.5681 133.456 56.1111C133.268 55.6571 133.175 55.1631 133.175 54.6331C133.175 54.1021 133.269 53.6081 133.456 53.1531C133.642 52.6991 133.903 52.3051 134.233 51.9761C134.565 51.6461 134.956 51.3881 135.409 51.2011C135.864 51.0141 136.35 50.9221 136.878 50.9221C137.663 50.9221 138.331 51.1141 138.884 51.4981C139.439 51.8801 139.859 52.3951 140.138 53.0391H138.626C138.431 52.7831 138.185 52.5751 137.888 52.4181C137.589 52.2601 137.251 52.1821 136.878 52.1821C136.548 52.1821 136.241 52.2431 135.964 52.3691C135.689 52.4951 135.448 52.6671 135.243 52.8851C135.036 53.1041 134.876 53.3641 134.763 53.6601C134.648 53.9581 134.591 54.2821 134.591 54.6351C134.591 54.9861 134.648 55.3121 134.763 55.6071C134.876 55.9071 135.036 56.1651 135.243 56.3821C135.448 56.6011 135.688 56.7751 135.964 56.9011C136.241 57.0241 136.548 57.0881 136.878 57.0881C137.396 57.0881 137.819 56.9521 138.146 56.6791C138.473 56.4061 138.699 56.0451 138.822 55.5941H136.488V54.3351H140.343C140.343 54.9501 140.255 55.5061 140.081 56.0021C139.909 56.4951 139.669 56.9171 139.36 57.2651C139.049 57.6141 138.684 57.8811 138.262 58.0671C137.844 58.2551 137.379 58.3481 136.877 58.3481C136.351 58.3461 135.864 58.2511 135.409 58.0641Z" fill="white"/>
</svg>
