<svg width="186" height="70" viewBox="0 0 186 70" fill="none" xmlns="http://www.w3.org/2000/svg">
<path d="M50.077 54.635H0V58.201H52.226L50.077 54.635Z" fill="#F8AA2B"/>
<path d="M62.5918 54.635L64.7418 58.201H77.9988V54.635H62.5918Z" fill="#F8AA2B"/>
<path d="M15.7432 61.77V65.338H56.5172V65.322L54.3752 61.769H15.7432V61.77Z" fill="#F8AA2B"/>
<path d="M17.1301 51.0759L42.9381 8.24594L39.8711 6.40894L15.1061 47.5089H7.87109V51.0769H17.1301V51.0759Z" fill="#F8AA2B"/>
<path d="M25.4777 51.076L55.1477 1.838L52.0797 0L21.3047 51.076H25.4777Z" fill="#F8AA2B"/>
<path d="M40.8799 32.419L63.5249 70L66.5909 68.162L42.9669 28.957L40.8799 32.419Z" fill="#F8AA2B"/>
<path d="M40.8853 39.361L38.7983 35.8979L29.6523 51.076H33.8273L40.8853 39.361Z" fill="#F8AA2B"/>
<path d="M53.1795 18.9591L50.1115 17.1201L45.0605 25.5031L60.4685 51.0761H71.5585V47.5081H62.4945L49.2355 25.5031L53.1795 18.9591Z" fill="#F8AA2B"/>
<path d="M98.2444 28.567C99.3324 28.994 100.254 29.569 101.008 30.294C101.758 31.02 102.326 31.868 102.713 32.842C103.102 33.817 103.295 34.852 103.295 35.944C103.295 37.04 103.102 38.073 102.713 39.048C102.326 40.023 101.758 40.87 101.008 41.597C100.254 42.322 99.3324 42.896 98.2444 43.324C97.1524 43.75 95.9064 43.963 94.5004 43.963H89.0244V27.927H94.5004C95.9064 27.927 97.1524 28.14 98.2444 28.567ZM100.205 33.686C99.9244 33.001 99.5194 32.415 98.9984 31.924C98.4694 31.432 97.8284 31.049 97.0684 30.777C96.3084 30.504 95.4614 30.366 94.5234 30.366H91.6904V41.524H94.5234C95.4614 41.524 96.3084 41.385 97.0684 41.112C97.8284 40.839 98.4684 40.456 98.9984 39.967C99.5194 39.475 99.9244 38.885 100.205 38.201C100.488 37.517 100.631 36.765 100.631 35.943C100.631 35.125 100.488 34.373 100.205 33.686Z" fill="#F8AA2B"/>
<path d="M113.06 41.6071C113.529 41.4061 113.902 41.0951 114.173 40.6751H116.962C116.542 41.7881 115.839 42.6651 114.853 43.3101C113.869 43.9551 112.753 44.2751 111.511 44.2751C110.64 44.2751 109.833 44.1271 109.099 43.8301C108.365 43.5291 107.73 43.1171 107.197 42.5861C106.664 42.0551 106.244 41.4241 105.937 40.6991C105.628 39.9781 105.478 39.1811 105.478 38.3101C105.478 37.4741 105.623 36.6931 105.912 35.9681C106.203 35.2441 106.611 34.6141 107.137 34.0851C107.662 33.5541 108.285 33.1371 109.002 32.8291C109.721 32.5231 110.518 32.3711 111.391 32.3711C112.229 32.3711 113.002 32.5181 113.704 32.8171C114.407 33.1131 115.013 33.5301 115.52 34.0591C116.032 34.5911 116.426 35.2101 116.709 35.9211C116.99 36.6301 117.131 37.3941 117.131 38.2141V38.7201C117.131 38.8801 117.115 39.0521 117.084 39.2281H108.141C108.289 40.0331 108.672 40.6811 109.293 41.1711C109.914 41.6611 110.654 41.9071 111.512 41.9071C112.077 41.9081 112.591 41.8091 113.06 41.6071ZM109.255 35.3541C108.659 35.8111 108.304 36.4201 108.191 37.1761H114.418C114.287 36.4201 113.959 35.8111 113.424 35.3541C112.891 34.8941 112.213 34.6641 111.391 34.6641C110.564 34.6641 109.853 34.8941 109.255 35.3541Z" fill="#F8AA2B"/>
<path d="M136.137 35.4991C135.696 34.9911 135.012 34.7371 134.09 34.7371C133.688 34.7371 133.301 34.8181 132.926 34.9791C132.555 35.1401 132.229 35.3651 131.947 35.6541C131.664 35.9451 131.435 36.3021 131.267 36.7301C131.097 37.1581 131.013 37.6361 131.013 38.1661V43.9631H128.443V37.5611C128.443 36.6941 128.222 36.0061 127.779 35.4991C127.334 34.9911 126.65 34.7371 125.73 34.7371C125.326 34.7371 124.939 34.8181 124.568 34.9791C124.195 35.1401 123.873 35.3651 123.597 35.6541C123.322 35.9451 123.099 36.2971 122.929 36.7171C122.761 37.1371 122.677 37.6021 122.677 38.1171V43.9631H120.107V32.6851H122.677V33.7231C123.001 33.3521 123.458 33.0351 124.058 32.7701C124.656 32.5051 125.341 32.3721 126.119 32.3721C128.023 32.3721 129.396 33.0071 130.236 34.2791C130.674 33.7321 131.242 33.2761 131.945 32.9151C132.648 32.5511 133.482 32.3721 134.455 32.3721C135.195 32.3721 135.871 32.4881 136.476 32.7211C137.083 32.9541 137.597 33.2821 138.027 33.7001C138.455 34.1181 138.787 34.6291 139.019 35.2331C139.255 35.8381 139.371 36.5001 139.371 37.2251V43.9631H136.803V37.5631C136.803 36.6931 136.582 36.0061 136.137 35.4991Z" fill="#F8AA2B"/>
<path d="M149.718 41.6071C150.187 41.4061 150.558 41.0951 150.833 40.6751H153.62C153.2 41.7881 152.497 42.6651 151.509 43.3101C150.525 43.9551 149.411 44.2751 148.169 44.2751C147.296 44.2751 146.491 44.1271 145.757 43.8301C145.021 43.5291 144.388 43.1171 143.857 42.5861C143.32 42.0551 142.9 41.4241 142.597 40.6991C142.284 39.9781 142.136 39.1811 142.136 38.3101C142.136 37.4741 142.279 36.6931 142.572 35.9681C142.863 35.2441 143.267 34.6141 143.795 34.0851C144.32 33.5541 144.943 33.1371 145.662 32.8291C146.379 32.5231 147.176 32.3711 148.049 32.3711C148.889 32.3711 149.658 32.5181 150.362 32.8171C151.065 33.1131 151.671 33.5301 152.178 34.0591C152.688 34.5911 153.082 35.2101 153.366 35.9211C153.649 36.6301 153.792 37.3941 153.792 38.2141V38.7201C153.792 38.8801 153.772 39.0521 153.743 39.2281H144.802C144.947 40.0331 145.331 40.6811 145.952 41.1711C146.573 41.6611 147.313 41.9071 148.171 41.9071C148.733 41.9081 149.247 41.8091 149.718 41.6071ZM145.913 35.3541C145.315 35.8111 144.962 36.4201 144.849 37.1761H151.074C150.945 36.4201 150.615 35.8111 150.08 35.3541C149.549 34.8941 148.873 34.6641 148.049 34.6641C147.222 34.6641 146.511 34.8941 145.913 35.3541Z" fill="#F8AA2B"/>
<path d="M159.032 32.6849H162.571V34.9289H159.032V40.0249C159.032 41.1519 159.606 41.7139 160.755 41.7139H162.571V43.9599H160.727C159.307 43.9599 158.243 43.6419 157.532 43.0069C156.821 42.3699 156.464 41.5229 156.464 40.4599V29.8589H159.032V32.6849V32.6849Z" fill="#F8AA2B"/>
<path d="M168.023 34.0599C168.296 33.6419 168.732 33.2919 169.328 33.0109C169.93 32.7289 170.644 32.5869 171.484 32.5869H172.527V35.0259H171.484C170.371 35.0259 169.513 35.3439 168.918 35.9799C168.318 36.6169 168.023 37.4589 168.023 38.5049V43.9599H165.451V32.6849H168.023V34.0599Z" fill="#F8AA2B"/>
<path d="M186.001 43.9631H183.431V42.9241C183.029 43.3421 182.515 43.6741 181.894 43.9141C181.273 44.1541 180.597 44.2751 179.871 44.2751C178.951 44.2751 178.133 44.1111 177.41 43.7791C176.693 43.4511 176.09 43.0091 175.607 42.4631C175.121 41.9181 174.75 41.2871 174.49 40.5701C174.232 39.8531 174.103 39.1071 174.103 38.3361C174.103 37.5611 174.232 36.8131 174.49 36.0881C174.75 35.3651 175.121 34.7291 175.607 34.1811C176.089 33.6331 176.693 33.1961 177.41 32.8651C178.133 32.5371 178.951 32.3721 179.871 32.3721C180.598 32.3721 181.273 32.4911 181.894 32.7331C182.515 32.9751 183.029 33.3041 183.431 33.7231V32.6851H186.001V43.9631ZM183.239 36.7661C183.044 36.3151 182.782 35.9381 182.45 35.6311C182.12 35.3261 181.745 35.0991 181.323 34.9551C180.905 34.8101 180.477 34.7371 180.04 34.7371C179.54 34.7371 179.083 34.8351 178.673 35.0271C178.259 35.2191 177.903 35.4771 177.603 35.7991C177.308 36.1211 177.076 36.5041 176.917 36.9471C176.755 37.3901 176.671 37.8511 176.671 38.3361C176.671 38.8181 176.755 39.2751 176.917 39.7111C177.075 40.1451 177.308 40.5251 177.603 40.8461C177.904 41.1681 178.259 41.4241 178.673 41.6191C179.083 41.8141 179.54 41.9081 180.04 41.9081C180.478 41.9081 180.905 41.8381 181.323 41.6911C181.745 41.5461 182.12 41.3261 182.45 41.0291C182.782 40.7321 183.044 40.3551 183.239 39.9041C183.43 39.4551 183.528 38.9311 183.528 38.3361C183.528 37.7411 183.431 37.2171 183.239 36.7661Z" fill="#F8AA2B"/>
<path d="M95.2403 52.322H92.9083V58.205H91.4943V52.322H89.1523V51.062H95.2403V52.322Z" fill="#F8AA2B"/>
<path d="M102.734 54.107C102.636 54.373 102.486 54.605 102.281 54.804C102.076 55.005 101.816 55.165 101.502 55.283C101.191 55.404 100.824 55.463 100.397 55.463H100.247L103.259 58.205H101.284L98.2724 55.463V58.205H96.8584V51.062H100.397C100.825 51.062 101.192 51.121 101.502 51.238C101.816 51.357 102.076 51.519 102.281 51.717C102.486 51.92 102.636 52.153 102.734 52.418C102.832 52.682 102.88 52.963 102.88 53.256C102.881 53.557 102.832 53.842 102.734 54.107ZM100.301 54.203C100.668 54.203 100.953 54.117 101.156 53.945C101.365 53.773 101.467 53.543 101.467 53.256C101.467 52.969 101.365 52.742 101.156 52.574C100.953 52.404 100.668 52.322 100.301 52.322H98.2724V54.203H100.301V54.203Z" fill="#F8AA2B"/>
<path d="M110.167 58.205L109.464 56.623H106.193L105.494 58.205H104.049L107.166 51.062H108.549L111.668 58.205H110.167ZM108.903 55.365L107.835 52.933L106.757 55.365H108.903Z" fill="#F8AA2B"/>
<path d="M117.18 51.348C117.662 51.537 118.069 51.795 118.405 52.118C118.739 52.44 118.995 52.819 119.165 53.251C119.339 53.687 119.427 54.147 119.427 54.634C119.427 55.124 119.339 55.581 119.165 56.017C118.995 56.451 118.739 56.83 118.405 57.152C118.069 57.476 117.663 57.732 117.18 57.92C116.698 58.111 116.145 58.207 115.518 58.207H113.036V51.064H115.518C116.145 51.063 116.697 51.156 117.18 51.348ZM116.529 56.773C116.84 56.66 117.107 56.5 117.326 56.294C117.545 56.088 117.713 55.845 117.834 55.564C117.953 55.279 118.012 54.97 118.012 54.632C118.012 54.294 117.953 53.986 117.834 53.702C117.713 53.419 117.545 53.175 117.326 52.97C117.107 52.767 116.84 52.607 116.529 52.491C116.215 52.378 115.863 52.319 115.472 52.319H114.449V56.944H115.472C115.863 56.945 116.215 56.887 116.529 56.773Z" fill="#F8AA2B"/>
<path d="M122.652 51.063H121.238V58.206H122.652V51.063Z" fill="#F8AA2B"/>
<path d="M131.364 58.205H129.829L126.268 53.191V58.205H124.852V51.062H126.385L129.948 56.074V51.062H131.364V58.205Z" fill="#F8AA2B"/>
<path d="M135.409 58.0641C134.958 57.8761 134.565 57.6211 134.233 57.2911C133.903 56.9611 133.641 56.5681 133.456 56.1111C133.268 55.6581 133.175 55.1641 133.175 54.6341C133.175 54.1031 133.269 53.6091 133.456 53.1541C133.642 52.6991 133.903 52.3061 134.233 51.9761C134.565 51.6461 134.956 51.3881 135.409 51.2011C135.864 51.0151 136.35 50.9221 136.878 50.9221C137.663 50.9221 138.331 51.1151 138.884 51.4981C139.439 51.8811 139.859 52.3961 140.138 53.0391H138.626C138.431 52.7831 138.185 52.5761 137.888 52.4181C137.589 52.2601 137.251 52.1821 136.878 52.1821C136.548 52.1821 136.241 52.2431 135.964 52.3701C135.689 52.4951 135.448 52.6671 135.243 52.8861C135.036 53.1051 134.876 53.3651 134.763 53.6611C134.648 53.9581 134.591 54.2821 134.591 54.6361C134.591 54.9861 134.648 55.3121 134.763 55.6071C134.876 55.9081 135.036 56.1661 135.243 56.3821C135.448 56.6011 135.688 56.7751 135.964 56.9021C136.241 57.0251 136.548 57.0881 136.878 57.0881C137.396 57.0881 137.819 56.9531 138.146 56.6801C138.473 56.4071 138.699 56.0451 138.822 55.5941H136.488V54.3361H140.343C140.343 54.9511 140.255 55.5061 140.081 56.0021C139.909 56.4961 139.669 56.9181 139.36 57.2661C139.049 57.6141 138.684 57.8811 138.262 58.0671C137.844 58.2561 137.379 58.3481 136.877 58.3481C136.351 58.3461 135.864 58.2521 135.409 58.0641Z" fill="#F8AA2B"/>
</svg>
