<svg width="63" height="56" viewBox="0 0 63 56" fill="none" xmlns="http://www.w3.org/2000/svg">
<path d="M40.0614 43.7072H0V46.5613H41.7807L40.0614 43.7072Z" fill="#F5AA29"/>
<path d="M50.0732 43.7072L51.7933 46.5613H62.399V43.7072H50.0732Z" fill="#F5AA29"/>
<path d="M12.5947 49.4158V52.2698H45.2139V52.2582L43.5009 49.4158H12.5947Z" fill="#F5AA29"/>
<path d="M13.7043 40.8601L34.3499 6.59597L31.8963 5.12604L12.0845 38.0059H6.29688V40.8601H13.7043Z" fill="#F5AA29"/>
<path d="M20.3821 40.8601L44.118 1.46993L41.6644 0L17.0439 40.8601H20.3821Z" fill="#F5AA29"/>
<path d="M32.7041 25.9351L50.8202 56L53.2737 54.53L34.3741 23.1648L32.7041 25.9351Z" fill="#F5AA29"/>
<path d="M32.7075 31.4894L31.0375 28.718L23.7207 40.8601H27.0607L32.7075 31.4894Z" fill="#F5AA29"/>
<path d="M42.5445 15.1667L40.09 13.6957L36.0488 20.4024L48.3757 40.8601H57.2469V38.0058H49.9955L39.3888 20.4024L42.5445 15.1667Z" fill="#F5AA29"/>
</svg>
